<svg width="244" height="266" viewBox="0 0 244 266" fill="none" xmlns="http://www.w3.org/2000/svg">
<path d="M6.77382 102.093V262.131C6.77382 262.131 6.77382 265.355 10.3256 265.355C13.8721 265.355 227.153 265.355 230.701 265.355C234.251 265.355 233.933 264.382 233.933 260.187C233.933 255.997 233.933 102.412 233.933 102.412L6.77382 102.093Z" fill="#6355FF"/>
<path d="M233.932 120.933C233.932 109.608 233.933 102.412 233.933 102.412L6.77382 102.093V120.933H233.932Z" fill="#443E81"/>
<path d="M233.933 260.187L233.932 169.079C228.017 196.563 214.701 222.677 192.413 239.374C167.444 258.075 134.5 260.755 104.376 261.423C76.7362 262.027 46.0757 265.16 18.653 262.715C13.345 262.243 9.61544 260.033 6.77248 256.656L6.77382 262.131C6.77382 262.131 6.77382 265.355 10.3256 265.355H230.701C234.251 265.355 233.933 264.382 233.933 260.187Z" fill="#9D98DD"/>
<path d="M0 85.6342C0 88.8643 0 106.929 0 109.513C0 112.098 1.93279 114.03 5.16283 114.03C8.39287 114.03 234.569 115.96 236.836 115.96C239.087 115.96 243.283 115.96 243.283 112.097C243.283 108.22 243.283 93.3785 243.283 90.4767C243.283 87.5723 243.366 86.1128 239.49 81.5202C235.618 76.9223 209.244 48.6104 206.823 45.7086C204.405 42.8029 203.197 43.0383 199.082 42.8029C194.97 42.5609 51.7029 39.4133 49.2849 39.17C46.8683 38.9255 44.6857 39.17 42.0271 41.5945C39.3659 44.0125 2.33687 78.3751 1.37048 79.8254C0.401466 81.2783 0 82.9717 0 85.6342Z" fill="#B9B2FF"/>
<path d="M1.12586 82C2.58265 82.4865 233.932 86.6005 238.522 86.6005C240.685 86.6005 242.079 86.6489 242.671 86.2121C242.155 85.0038 241.223 83.5694 239.49 81.5202C235.618 76.9223 209.244 48.6104 206.823 45.7086C204.405 42.8029 203.197 43.0383 199.082 42.8029C194.97 42.5609 51.7029 39.4133 49.2849 39.17C46.8683 38.9255 44.6857 39.17 42.0271 41.5945C39.3659 44.0125 2.37603 78.3489 1.37564 79.8214C0.889168 80.9787 0.69432 81.8627 1.12586 82Z" fill="#6355FF"/>
<path d="M42.7528 42.5606C42.7528 42.5606 8.39275 73.5376 4.75863 76.922C1.12713 80.3037 0.890433 82.2522 4.28001 81.7644C7.66436 81.2766 238.522 86.6005 238.522 86.6005C238.522 86.6005 29.1997 77.4006 19.52 77.4006C9.83646 77.4006 11.5339 75.4691 17.3414 69.1751C23.1489 62.8876 42.7528 42.5606 42.7528 42.5606Z" fill="#F8B693"/>
<path d="M242.671 86.2121C242.079 86.6489 240.685 86.6005 238.522 86.6005C233.932 86.6005 2.58265 82.4865 1.12586 82C0.69432 81.8627 0.88915 80.9775 1.37431 79.8176L1.37048 79.8254C0.401466 81.2783 0 82.9717 0 85.6342C0 88.8643 0 106.929 0 109.513C0 112.098 1.93279 114.03 5.16283 114.03C8.39287 114.03 234.569 115.96 236.836 115.96C239.087 115.96 243.283 115.96 243.283 112.097C243.283 108.22 243.283 93.3785 243.283 90.4767C243.283 88.8669 243.311 87.7055 242.671 86.2121Z" fill="#5044D2"/>
<path d="M229.928 136.58C226.065 134.525 223.154 131.493 223.154 131.493C223.885 130.52 225.093 129.438 227.312 127.743C231.959 124.199 232.789 122.907 232.471 114.029C232.149 105.157 227.312 103.703 216.826 96.4454C206.334 89.1837 197.473 81.1178 192.948 74.9833C191.149 72.5366 188.856 70.5855 186.754 69.1222C187.355 68.9391 187.953 68.7442 188.545 68.5298C188.917 68.3912 188.771 67.8759 188.407 67.8759C187.411 67.8707 186.398 67.9949 185.369 68.2015C184.548 67.6811 183.798 67.2495 183.146 66.8978C179.548 64.0286 174.558 62.4502 170.766 62.326C167.778 62.2227 164.974 62.5483 162.523 63.0217C158.4 63.4232 154.313 64.3412 150.171 65.0369C140.28 66.6755 130.275 66.8285 120.453 64.689C120.285 64.6603 120.242 64.9114 120.412 64.9519C128.317 67.3005 136.668 67.7046 144.851 67.0102C145.685 66.9396 146.519 66.8428 147.338 66.7435C149.991 66.648 152.57 66.1327 155.161 65.5168C158.982 64.8839 162.82 64.315 166.723 64.3961C172.116 64.506 177.419 66.0294 181.673 69.2739C180.078 69.8571 178.532 70.545 177.116 71.1975C177.011 71.2446 177.062 71.3767 177.172 71.357C178.975 70.9268 180.852 70.5489 182.729 70.1343C183.084 70.4469 183.44 70.766 183.773 71.106C184.784 72.1142 185.64 73.2179 186.384 74.387C186.66 76.5264 185.692 78.6227 182.785 80.3044C172.781 86.1119 155.039 80.4705 141.808 94.8265C141.808 94.8265 135.515 104.349 140.032 108.705C144.546 113.061 148.828 114.345 150.203 115.882C150.203 115.882 141.408 119.43 137.044 123.142C132.693 126.852 132.854 130.31 132.854 135.001C132.854 136.37 133.178 138.148 134.953 139.6C136.722 141.051 141.085 144.36 147.775 146.133C147.775 146.133 136.002 151.836 133.015 156.698C131.485 159.2 133.026 164.828 133.82 168.158C134.305 170.177 137.78 174.206 146.007 177.513C146.007 177.513 137.53 182.599 135.92 184.934C134.305 187.274 136.488 190.908 136.969 191.866C137.447 192.841 144.949 198.079 144.949 198.079C144.949 198.079 137.932 202.192 138.905 214.864C138.905 214.864 139.664 211.753 143.019 208.812C143.665 208.249 144.949 209.859 146.007 212.519C146.007 212.519 146.993 203.863 150.756 200.98C152.132 199.94 155.038 198.326 154.72 196.783C154.389 195.255 152.535 194.769 148.66 193.326C144.795 191.865 143.665 191.379 140.677 189.614C140.677 189.614 141.649 187.837 146.41 185.496C151.159 183.154 157.135 181.46 157.941 179.931C158.746 178.402 158.511 178.721 158.022 177.026C157.537 175.333 157.86 173.234 157.053 172.596C156.245 171.941 151.731 171.705 147.13 169.69C142.535 167.676 138.26 165.328 136.245 163.153C136.245 163.153 137.938 159.2 144.061 156.136C150.203 153.073 157.295 150.654 158.579 147.751C159.874 144.845 160.277 140.004 158.831 139.036C157.371 138.065 141.891 134.598 137.78 130.881C137.78 130.881 140.031 127.171 147.215 124.109C154.389 121.043 157.783 120.077 159.068 118.14C160.359 116.208 161.417 109.268 159.553 108.542C157.699 107.816 149.069 105.552 143.993 101.118C143.993 101.118 149.145 95.7157 161.652 92.4085C173.448 89.2962 186.376 84.238 187.677 76.7631C189.42 80.5162 190.142 84.7545 190.262 88.9353C189.595 89.087 188.887 89.5473 188.106 90.4784C184.397 94.8958 172.463 111.77 171.002 114.19C169.557 116.612 169.24 118.058 169.24 123.061C169.24 127.96 170.779 169.178 170.996 173.034C170.996 173.034 171.002 173.046 171.002 173.054C171.002 173.123 171.002 173.191 171.002 173.234C171.059 173.914 171.077 174.513 171.168 175.007V175.011C171.168 175.011 171.168 175.011 171.168 175.019C171.181 175.066 171.197 175.124 171.202 175.172C171.419 176.359 172.959 177.479 173.538 177.973C174.429 178.721 174.725 178.721 176.17 178.721C179.394 178.721 206.661 177.75 210.045 177.598C213.436 177.429 213.114 176.138 212.947 172.27C212.79 168.398 213.602 127.424 213.269 123.061C212.947 118.713 213.636 118.019 209.601 111.891C205.57 105.762 198.79 95.619 197.503 93.6796C196.568 92.283 194.26 88.964 191.774 88.7535C191.695 83.4612 190.606 78.3049 187.805 73.6913C187.669 73.3879 187.521 73.0741 187.37 72.7733C187.13 72.0096 186.819 71.2943 186.423 70.6208C188.955 73.4415 191.315 76.699 192.304 78.3755C197.026 86.363 206.218 93.8679 216.256 101.118C226.301 108.389 228.123 119.517 228.123 119.517C227.393 121.574 221.701 125.686 218.799 127.383C215.893 129.077 214.927 130.646 215.893 135.246C216.866 139.846 217.712 138.637 220.853 139.846C225.96 141.805 229.331 145.41 229.331 145.41C229.316 145.41 229.309 145.418 229.3 145.418C228.765 145.597 228.246 145.787 227.749 146.022C227.038 146.362 226.363 146.758 225.702 147.194C223.043 148.701 220.302 150.599 219.41 151.578C218.075 153.03 218.799 156.171 219.646 159.198C220.494 162.228 227.026 164.772 227.026 164.772C227.026 164.772 223.642 167.786 220.377 170.688C217.104 173.6 217.95 173.843 217.95 176.137C217.95 178.443 217.591 179.29 218.564 180.012C220.827 181.709 226.912 185.821 226.912 185.821C224.85 188.12 217.714 191.865 215.532 193.561C213.351 195.255 214.928 196.588 216.137 199.609C217.351 202.633 221.217 204.454 224.004 206.148C226.789 207.844 226.428 208.324 222.675 210.262C218.923 212.192 218.203 214.373 218.203 214.373C220.258 212.803 225.94 212.678 225.94 212.678C226.79 214.735 227.153 217.883 227.153 217.883C228.484 212.922 232.96 210.982 233.197 208.203C233.447 205.425 230.418 203.118 226.79 200.825C223.155 198.52 223.401 196.822 223.401 196.822C225.331 195.253 230.298 192.837 232.474 191.501C234.655 190.168 233.805 189.571 233.934 185.576C234.043 181.582 232.597 181.093 230.183 180.497C225.721 179.379 223.275 175.656 223.275 175.656C228.485 171.424 232.962 169.243 234.655 168.396C236.349 167.548 235.017 164.283 234.898 161.866C234.782 159.44 233.198 159.922 230.299 159.321C227.397 158.711 224.246 156.168 224.246 156.168C228.487 152.054 235.144 151.333 235.739 149.041C236.303 146.899 235.733 145.288 236.13 143.233C236.143 143.217 236.155 143.205 236.171 143.183C236.213 143.121 236.197 143.052 236.177 142.997C236.196 142.914 236.205 142.829 236.227 142.745C236.835 140.442 233.804 138.637 229.928 136.58ZM175.934 64.3896C174.58 63.9227 173.182 63.5487 171.778 63.2924C173.129 63.4637 174.536 63.8469 175.934 64.3896ZM191.718 95.7419C191.718 96.6468 191.337 97.4171 190.808 97.7152C190.282 97.4171 189.899 96.6481 189.899 95.7419C189.899 95.1573 190.049 94.6316 190.301 94.2472C190.571 94.5898 191.1 94.6578 191.378 94.3675C191.588 94.7428 191.718 95.2149 191.718 95.7419Z" fill="#AB449B"/>
<path d="M184.065 51.8028C180.228 50.7501 175.37 51.2104 171.406 51.2928C165.778 51.4118 160.134 51.6001 154.508 51.7374C148.13 51.8917 141.614 51.9754 135.179 52.5442C131.547 48.8474 123.959 49.3064 119.089 49.7784C114.373 50.2361 109.684 51.1411 105.096 52.3206C99.638 51.5425 94.147 50.9436 88.597 50.6808C84.3888 50.4728 80.1296 50.5016 75.9463 51.0155C74.4476 51.2104 71.1391 51.6825 71.3117 53.5852C71.4451 55.0158 73.0968 55.9482 74.7157 56.5314C71.6387 55.4199 62.2742 55.3087 59.6078 57.9699C55.1602 62.4148 70.0969 66.0921 73.9036 66.0071C74.0409 66.0019 74.1678 65.9953 74.3064 65.9953C71.9669 71.948 85.0074 71.6355 89.2849 71.3295C94.8165 70.9411 100.291 69.8413 105.646 68.5924C110.795 67.3972 116.062 65.981 121.175 64.2731C128.748 69.6621 139.751 71.37 149.034 72.3652C156.022 73.1145 162.63 73.2753 169.597 72.3416C173.954 71.7597 180.158 71.3569 183.539 68.5702C189.121 63.9919 178.159 61.2196 174.8 60.5461C174.453 60.4755 174.098 60.4219 173.758 60.3578C175.184 60.0243 176.616 59.6765 178.017 59.2946C180.652 58.5728 184.867 57.6129 186.34 55.2813C187.452 53.5185 185.926 52.3076 184.065 51.8028Z" fill="#5F00A9"/>
<path d="M216.181 120.156C215.854 115.807 216.539 115.12 212.51 108.985C208.475 102.858 201.703 92.7153 200.41 90.776C199.122 88.8366 195.207 83.2383 191.816 87.2674C188.105 91.694 177.298 110.805 175.853 113.223C174.392 115.639 174.074 117.092 174.074 122.093C174.074 127.098 173.913 169.841 174.074 172.108C174.157 173.35 175.837 174.552 176.441 175.066C177.333 175.818 177.631 175.818 179.074 175.818C182.297 175.818 209.568 174.845 212.948 174.69C216.339 174.526 216.022 173.232 215.854 169.363C215.702 165.494 216.499 124.517 216.181 120.156ZM194.192 94.9502C193.427 94.9502 192.801 94.0073 192.801 92.8395C192.801 91.6639 193.427 90.7132 194.192 90.7132C194.97 90.7132 195.596 91.6639 195.596 92.8395C195.596 94.0073 194.97 94.9502 194.192 94.9502Z" fill="#6355FF"/>
<path d="M214.242 118.224C213.924 113.869 213.924 114.03 209.884 107.902C205.855 101.768 199.241 91.9219 197.95 89.9917C196.657 88.0576 194.4 83.5434 191.008 87.5738C187.296 91.9938 175.362 108.868 173.912 111.292C172.46 113.71 172.14 115.155 172.14 120.157C172.14 125.159 173.755 168.079 173.912 170.329C174.073 172.596 173.912 173.88 177.142 173.88C180.366 173.88 207.627 172.913 211.018 172.754C214.408 172.596 214.081 171.302 213.924 167.426C213.757 163.556 214.563 122.58 214.242 118.224ZM193.232 94.9505C192.455 94.9505 191.834 94.0077 191.834 92.8399C191.834 91.6643 192.455 90.7136 193.232 90.7136C193.997 90.7136 194.621 91.6643 194.621 92.8399C194.621 94.0077 193.997 94.9505 193.232 94.9505Z" fill="#FFB546"/>
<path d="M174.643 169.12C174.643 169.12 173.1 127.256 172.78 122.58C172.462 117.905 173.1 113.868 176.003 109.512C178.909 105.149 190.525 89.0186 190.525 89.0186C190.525 89.0186 178.269 108.06 177.137 111.124C176.003 114.188 174.392 116.284 174.235 123.226C174.073 130.16 174.643 169.12 174.643 169.12Z" fill="#FF9000"/>
<path d="M214.318 125.257C214.235 125.701 214.161 126.131 214.074 126.555C211.852 138.484 203.195 152.427 198.095 158.263C193.768 163.231 185.885 171.233 178.642 171.019C176.435 170.948 174.911 170.191 173.844 168.997C173.878 169.686 173.896 170.149 173.912 170.329C174.073 172.596 173.912 173.88 177.142 173.88C180.366 173.88 207.627 172.913 211.018 172.754C214.408 172.596 214.081 171.302 213.924 167.426C213.797 164.381 214.27 138.324 214.318 125.257Z" fill="#6355FF"/>
<path d="M149.876 63.8542C157.784 63.6947 164.875 59.6578 173.914 60.3051C182.952 60.9498 195.695 71.5932 185.691 77.4008C175.683 83.2096 157.942 77.5655 144.713 91.9216C144.713 91.9216 138.419 101.446 142.935 105.8C147.453 110.158 151.73 111.443 153.099 112.978C153.099 112.978 144.313 116.529 139.954 120.241C135.6 123.949 135.767 127.409 135.767 132.098C135.767 133.467 136.086 135.246 137.858 136.697C139.627 138.15 143.985 141.456 150.68 143.236C150.68 143.236 138.907 148.932 135.923 153.796C134.393 156.297 135.934 161.924 136.726 165.251C137.213 167.274 140.679 171.302 148.915 174.608C148.915 174.608 140.438 179.696 138.826 182.028C137.215 184.37 139.396 187.996 139.874 188.963C140.352 189.934 147.857 195.173 147.857 195.173C147.857 195.173 140.84 199.292 141.81 211.957C141.81 211.957 142.568 208.846 145.924 205.905C146.569 205.344 147.863 206.955 148.915 209.618C148.915 209.618 149.899 200.962 153.666 198.079C155.041 197.035 157.943 195.424 157.625 193.881C157.298 192.352 155.441 191.866 151.565 190.421C147.702 188.963 146.57 188.483 143.586 186.712C143.586 186.712 144.555 184.934 149.315 182.598C154.068 180.249 160.039 178.556 160.849 177.026C161.654 175.497 161.419 175.819 160.931 174.121C160.446 172.427 160.766 170.329 159.958 169.688C159.153 169.036 154.638 168.799 150.039 166.787C145.44 164.773 141.164 162.423 139.15 160.248C139.15 160.248 140.841 156.296 146.967 153.233C153.102 150.167 160.201 147.752 161.486 144.845C162.78 141.941 163.182 137.092 161.737 136.133C160.28 135.16 144.798 131.692 140.68 127.976C140.68 127.976 142.937 124.266 150.12 121.212C157.298 118.14 160.688 117.175 161.972 115.237C163.263 113.304 164.312 106.365 162.46 105.635C160.606 104.914 151.968 102.654 146.897 98.2156C146.897 98.2156 152.051 92.8082 164.557 89.5036C177.064 86.1964 190.853 80.7093 190.692 72.4825C190.529 64.257 180.285 59.646 173.674 59.4211C166.571 59.1778 160.446 61.3748 157.943 62.0757C154.795 62.9663 149.876 63.8542 149.876 63.8542Z" fill="#4332FF"/>
<path d="M162.033 105.499C162.026 105.49 162.02 105.484 162.02 105.484C159.494 104.607 151.643 102.372 146.893 98.2174C146.893 98.2174 146.938 98.169 147.005 98.0984C146.428 97.6198 145.934 97.0522 145.633 96.3278C144.937 94.731 144.776 93.133 145.063 91.5703C144.949 91.6867 144.825 91.8039 144.713 91.9216C144.713 91.9216 138.419 101.446 142.935 105.8C147.453 110.158 151.73 111.443 153.099 112.978C153.099 112.978 152.467 113.239 151.466 113.675C152.65 113.225 153.809 112.703 154.961 112.18C155.471 111.903 155.983 111.624 156.468 111.321C157.26 110.826 163.83 106.58 162.033 105.499Z" fill="#7B6FFF"/>
<path d="M151.591 197.113C152.356 197.405 153.119 197.66 153.897 197.91C155.327 196.869 157.924 195.342 157.622 193.881C157.295 192.352 155.438 191.866 151.562 190.421C147.699 188.963 146.566 188.483 143.582 186.712L143.587 186.704C142.231 186.14 141.064 185.279 140.072 184.084C139.433 183.321 139.14 182.5 139.112 181.667C139.003 181.793 138.905 181.916 138.822 182.028C137.211 184.37 139.392 187.997 139.871 188.963C140.308 189.836 146.468 194.199 147.647 195.027C148.915 195.805 150.159 196.571 151.591 197.113Z" fill="#7B6FFF"/>
<path d="M148.868 174.706C152.586 175.998 156.621 176.64 160.484 176.715C160.664 176.721 160.809 176.763 160.943 176.839C161.617 175.539 161.384 175.734 160.928 174.123C160.443 172.428 160.763 170.331 159.955 169.69C159.149 169.037 154.635 168.801 150.036 166.788C146.157 165.083 142.534 163.162 140.28 161.291C139.147 160.549 138.14 159.658 137.362 158.574C135.987 156.629 135.8 155.074 136.14 153.47C136.071 153.574 135.986 153.685 135.919 153.796C134.389 156.298 135.931 161.925 136.722 165.252C137.711 169.371 142.404 171.844 145.873 173.484C146.84 173.943 147.838 174.352 148.868 174.706Z" fill="#7B6FFF"/>
<path d="M161.733 136.134C160.344 135.206 146.215 132.01 141.334 128.507C139.071 127.674 136.862 126.305 137.066 124.2C137.044 124.076 137.008 123.949 136.999 123.818C135.697 126.326 135.767 128.93 135.767 132.098C135.767 133.467 136.086 135.246 137.858 136.697C144.097 141.803 151.81 144.655 159.872 144.77C160.524 144.777 160.845 145.291 160.845 145.799C161.123 145.487 161.346 145.166 161.481 144.846C162.776 141.943 163.178 137.094 161.733 136.134Z" fill="#7B6FFF"/>
<path d="M183.756 62.8881C183.756 62.8881 191.336 65.9547 195.854 72.08C200.375 78.2145 209.241 86.2804 219.731 93.5343C230.221 100.801 235.057 102.254 235.374 111.126C235.695 120.002 234.86 121.297 230.221 124.84C227.995 126.533 226.789 127.618 226.065 128.59C226.065 128.59 228.961 131.617 232.833 133.676C236.708 135.733 239.73 137.539 239.126 139.845C238.522 142.139 239.253 143.835 238.638 146.134C238.043 148.432 231.388 149.155 227.151 153.276C227.151 153.276 230.296 155.81 233.196 156.421C236.104 157.026 237.675 156.537 237.791 158.963C237.918 161.381 239.253 164.646 237.556 165.495C235.862 166.342 231.388 168.517 226.176 172.753C226.176 172.753 228.621 176.485 233.082 177.598C235.5 178.194 236.945 178.68 236.835 182.676C236.709 186.669 237.556 187.275 235.374 188.602C233.196 189.936 228.241 192.353 226.301 193.923C226.301 193.923 226.065 195.618 229.692 197.926C233.319 200.218 236.346 202.519 236.104 205.304C235.861 208.083 231.388 210.02 230.051 214.981C230.051 214.981 229.692 211.835 228.845 209.776C228.845 209.776 223.152 209.903 221.097 211.473C221.097 211.473 221.828 209.293 225.58 207.36C229.331 205.428 229.691 204.942 226.911 203.247C224.119 201.551 220.257 199.732 219.041 196.71C217.833 193.686 216.256 192.353 218.437 190.656C220.618 188.963 227.754 185.211 229.81 182.919C229.81 182.919 223.728 178.805 221.466 177.111C220.493 176.389 220.854 175.538 220.854 173.234C220.854 170.941 220.007 170.689 223.271 167.787C226.546 164.889 229.926 161.869 229.926 161.869C229.926 161.869 223.398 159.324 222.551 156.298C221.701 153.276 220.98 150.128 222.312 148.676C223.64 147.224 229.079 143.715 232.233 142.507C232.233 142.507 228.858 138.901 223.759 136.942C220.617 135.734 219.771 136.942 218.798 132.341C217.831 127.744 218.798 126.173 221.7 124.477C224.605 122.781 230.294 118.67 231.016 116.611C231.016 116.611 229.206 105.484 219.16 98.2172C209.118 90.9646 199.924 83.4623 195.204 75.4709C193.456 72.5116 187.425 64.5777 183.756 62.8881Z" fill="#4332FF"/>
<path d="M236.835 182.676C236.917 179.715 236.139 178.68 234.751 178.097C234.739 178.208 234.723 178.306 234.681 178.415C234.328 179.404 233.525 180.18 232.754 180.87C232.074 181.475 231.36 182.023 230.635 182.573C229.83 183.183 229.065 183.88 228.19 184.338C225.262 186.546 220.2 189.281 218.437 190.656C216.256 192.353 217.833 193.686 219.041 196.71C219.34 197.454 219.797 198.122 220.354 198.733C220.367 198.664 220.395 198.589 220.423 198.517C220.464 197.262 221.466 196.453 222.771 195.691C224.104 194.913 225.459 194.195 226.844 193.523C229.038 191.965 233.372 189.827 235.372 188.605C237.556 187.273 236.709 186.669 236.835 182.676Z" fill="#7B6FFF"/>
<path d="M235.374 111.126C235.292 108.776 234.873 106.957 234.137 105.4C234.805 107.247 234.971 109.208 234.221 111.137C233.451 113.139 231.016 116.611 231.016 116.611C230.294 118.67 224.605 122.781 221.7 124.477C218.798 126.173 217.831 127.744 218.798 132.341C219.755 136.899 220.606 135.746 223.681 136.914C223.175 136.177 222.828 135.344 222.815 134.356C222.815 133.635 225.806 128.327 226.086 128.619C226.073 128.604 226.065 128.59 226.065 128.59C226.789 127.618 227.995 126.533 230.221 124.84C234.86 121.297 235.695 120.002 235.374 111.126Z" fill="#7B6FFF"/>
<path d="M238.906 138.122C238.863 138.232 238.832 138.343 238.778 138.455C238.154 139.815 236.946 140.429 235.598 140.943C233.86 141.595 232.293 142.624 230.561 143.306C230.478 143.341 230.4 143.362 230.319 143.375C227.234 144.931 223.398 147.486 222.312 148.676C220.98 150.128 221.701 153.276 222.551 156.298C222.721 156.916 223.134 157.519 223.675 158.076C223.188 156.894 223.257 155.657 224.563 154.586C225.579 153.753 226.716 153.141 227.901 152.601C232.125 149.07 238.068 148.306 238.638 146.134C239.253 143.835 238.522 142.139 239.126 139.845C239.282 139.243 239.189 138.678 238.906 138.122Z" fill="#7B6FFF"/>
<path d="M236.363 156.955C234.837 157.338 233.75 158.345 232.554 159.498C231.292 160.725 230.107 162.033 228.643 163.014C227.359 164.159 225.298 165.994 223.271 167.787C220.007 170.689 220.854 170.941 220.854 173.234C220.854 175.538 220.493 176.389 221.466 177.111C221.792 177.361 222.216 177.664 222.689 177.998C222.624 177.93 222.567 177.851 222.504 177.783C222.287 177.648 222.114 177.458 222.072 177.212C221.715 175.156 224.137 173.766 225.636 172.892C226.032 172.661 226.441 172.44 226.848 172.225C231.765 168.343 235.933 166.299 237.556 165.495C239.253 164.646 237.918 161.381 237.791 158.963C237.727 157.658 237.251 157.199 236.363 156.955Z" fill="#7B6FFF"/>
<path d="M189.883 69.5089C186.353 64.3958 180.637 61.4783 174.643 60.3824C167.305 59.0276 160.27 60.9369 153.07 62.1308C143.185 63.7707 133.178 63.9237 123.356 61.7856C123.189 61.7568 123.148 62.0066 123.314 62.0498C131.219 64.3971 139.572 64.8012 147.762 64.1055C155.09 63.4856 162.233 61.341 169.624 61.494C175.939 61.6248 182.156 63.6805 186.674 68.2025C192.523 74.0545 193.606 82.9718 193.052 90.839C192.98 91.74 194.374 92.0054 194.456 91.0874C195.194 83.4883 194.319 75.9298 189.883 69.5089Z" fill="#FF9100"/>
<path d="M169.793 57.9216C168.473 57.018 166.73 56.3785 164.612 55.9561C159.484 60.1735 146.076 61.0771 138.215 61.0771C132.652 61.0771 127.358 60.4926 124.024 60.1473C121.474 61.1189 120.023 61.9219 120.023 61.9219L126.608 64.5778C132.268 67.0716 161.62 74.8159 167.985 68.4539C171.253 65.1885 175.128 61.591 169.793 57.9216Z" fill="#6355FF"/>
<path d="M168.652 67.7868C171.731 64.7019 174.767 61.3386 169.793 57.9216C168.473 57.018 166.73 56.3785 164.612 55.9561C163.582 56.8022 162.19 57.5187 160.593 58.1176C164.863 59.6869 168.43 63.0085 168.652 67.7868Z" fill="#6355FF"/>
<path d="M135.265 66.9053C133.5 64.3683 133.695 62.4382 134.904 61.0075C130.603 60.8388 126.684 60.4246 124.024 60.1473C121.474 61.1189 120.023 61.9219 120.023 61.9219L126.608 64.5778C128.163 65.2735 131.52 66.3495 135.698 67.4244C135.549 67.2505 135.388 67.0923 135.265 66.9053Z" fill="#6355FF"/>
<path d="M108.252 48.3685C105.349 43.0396 90.3429 18.1957 88.0793 16.0968C85.8248 14.0045 80.1781 11.9017 78.8874 15.2926C78.7958 15.528 78.7174 15.7647 78.6415 15.9935C78.4088 19.4864 79.9362 22.4745 81.7957 25.1344C84.0463 28.3658 91.7945 36.1074 96.1478 42.0758C99.5819 46.7783 112.216 56.5717 117.426 60.5328C114.573 57.1563 110.144 51.843 108.252 48.3685Z" fill="#6355FF"/>
<path d="M81.7212 19.042C84.283 17.967 86.9533 17.6754 89.5504 17.9736C88.8835 17.0281 88.3748 16.3741 88.0793 16.0968C85.8248 14.0045 80.1781 11.9017 78.8874 15.2926C78.7958 15.528 78.7174 15.7647 78.6415 15.9935C78.5317 17.6059 78.8102 19.1061 79.3097 20.5184C80.0054 19.9469 80.7992 19.4395 81.7212 19.042Z" fill="#6355FF"/>
<path d="M88.0793 16.0968C90.3429 18.1957 105.349 43.0396 108.252 48.3685C110.144 51.843 114.573 57.1563 117.426 60.5328C118.826 61.5946 119.702 62.2437 119.702 62.2437C119.702 62.2437 118.244 42.3626 110.026 16.7524C105.839 3.67667 97.9315 4.16575 92.9295 5.28907C87.9275 6.4307 80.3402 9.16773 79.0469 13.6819C78.8272 14.481 78.7003 15.2525 78.6441 15.9966C78.7199 15.7677 78.7984 15.531 78.8899 15.2957C80.178 11.9035 85.8248 14.0045 88.0793 16.0968Z" fill="#FF9500"/>
<path d="M87.2292 12.4997C87.8269 9.30363 91.2596 8.09531 94.13 7.43491C99.6525 6.16382 103.353 7.34337 106.65 9.76917C102.375 3.94072 96.782 4.42075 92.9295 5.28907C87.9275 6.4307 80.3402 9.16773 79.0469 13.6819C78.8272 14.481 78.7003 15.2525 78.6441 15.9966C78.7199 15.7677 78.7984 15.531 78.8899 15.2957C80.1179 12.0787 85.2729 13.8126 87.7157 15.7912C87.2645 14.6953 87.037 13.5838 87.2292 12.4997Z" fill="#FF9000"/>
<path d="M154.877 18.5242C160.685 12.0706 161.812 14.3264 162.942 14.8129C163.691 15.1333 165.136 16.169 166.083 18.1828C165.49 14.6115 163.886 12.1242 162.774 11.0951C160.677 9.16489 149.067 1.90449 144.058 6.26047C139.334 10.3876 140.513 12.0693 134.706 28.3673C129.404 43.2359 121.827 58.2288 120.539 60.7422C122.564 59.1311 125.409 57.282 128.705 55.2825C131.476 53.032 134.796 50.0569 138.733 46.1103C144.712 40.1353 149.068 24.979 154.877 18.5242Z" fill="#FF9500"/>
<path d="M162.774 11.0951C160.677 9.16489 149.067 1.90449 144.058 6.26047C143.778 6.51155 143.518 6.74824 143.272 6.98363C147.366 5.67853 151.923 6.99017 155.909 9.4565C157.703 10.5563 158.698 11.9582 157.549 13.9459C156.425 15.8917 154.819 17.0033 154.036 19.2905C153.992 19.4226 153.967 19.5612 153.916 19.6841C154.227 19.2813 154.55 18.8772 154.877 18.5242C160.685 12.0706 161.812 14.3264 162.942 14.8129C163.691 15.1333 165.136 16.169 166.083 18.1828C165.49 14.6115 163.886 12.1242 162.774 11.0951Z" fill="#FFC500"/>
<path d="M162.942 14.8129C161.812 14.3264 160.685 12.0706 154.877 18.5242C149.068 24.979 144.713 40.1353 138.739 46.1102C134.801 50.0568 131.479 53.0306 128.71 55.2824C141.434 47.5552 160.75 37.5656 164.234 29.9796C166.356 25.3529 166.608 21.3436 166.083 18.1828C165.136 16.169 163.691 15.1333 162.942 14.8129Z" fill="#6355FF"/>
<path d="M165.099 21.5477C165.502 21.9635 165.867 22.4081 166.217 22.8671C166.383 21.1554 166.318 19.586 166.083 18.1828C165.136 16.169 163.691 15.1333 162.942 14.8129C161.812 14.3264 160.685 12.0706 154.877 18.5242C154.857 18.5438 154.844 18.5752 154.822 18.5883C158.482 17.9188 162.498 18.8512 165.099 21.5477Z" fill="#6355FF"/>
<path d="M125.51 17.3902C125.192 6.42903 128.74 3.6763 130.512 2.87206C131.681 2.34244 132.498 1.96844 133.917 2.76091C131.581 0.549573 130.47 0.273647 126.315 0.13503C121.64 -0.0323565 118.256 -0.190589 116.311 0.621497C114.38 1.42835 111.797 3.52461 110.831 5.94387C109.864 8.36052 110.831 15.7818 112.93 31.2742C115.027 46.7522 120.023 59.1807 120.023 59.1807C120.174 59.0198 120.327 58.8394 120.476 58.6681C121.508 55.353 123.08 50.1274 123.899 46.4331C125.191 40.6243 125.83 28.3671 125.51 17.3902Z" fill="#ACA5FF"/>
<path d="M126.051 9.92848C125.664 10.9707 125.336 12.0614 125.078 13.203C124.426 16.0368 125.371 23.4763 123.007 25.4641C122.761 25.6746 121.772 28.9792 121.564 28.6889C120.909 27.797 120.037 19.4355 119.764 17.6348C119.653 16.9038 119.562 16.1558 119.48 15.4065C119.348 21.3304 118.894 24.2492 119.064 32.5584C119.073 33.2998 118.894 43.2502 118.41 42.7219C115.816 39.8593 114.095 26.0904 113.368 22.4929C111.312 12.3896 110.503 8.35923 110.641 6.59513C110.017 9.55448 110.99 16.9757 112.93 31.2742C115.027 46.7522 120.023 59.1807 120.023 59.1807C120.174 59.0198 120.327 58.8394 120.476 58.6681C121.508 55.353 123.08 50.1274 123.899 46.4331C125.191 40.6243 125.83 28.3671 125.51 17.3902C125.418 14.2844 125.648 11.8534 126.051 9.92848Z" fill="#6355FF"/>
<path d="M126.315 0.13503C121.64 -0.0323565 118.256 -0.190589 116.311 0.621497C114.38 1.42835 111.797 3.52461 110.831 5.94387C110.531 6.69319 110.415 7.94377 110.463 9.77064C111.394 6.92768 113.311 4.71373 117.174 3.91341C120.134 3.30271 124.485 3.08694 125.51 6.80476C125.557 6.99176 125.579 7.18661 125.624 7.38015C125.899 8.22101 125.982 9.15209 126.011 10.112C127.012 5.0812 129.228 3.4553 130.512 2.87206C131.681 2.34244 132.498 1.96844 133.917 2.76091C131.581 0.549573 130.47 0.273647 126.315 0.13503Z" fill="#FF9000"/>
<path d="M133.917 2.76091C132.498 1.96844 131.681 2.34244 130.512 2.87206C128.74 3.6763 125.192 6.42903 125.51 17.3902C125.83 28.3671 125.191 40.6243 123.899 46.4331C123.08 50.1274 121.508 55.353 120.476 58.6681C126.219 51.8379 133.453 32.0551 134.708 25.1347C136.001 18.0443 137.938 6.74833 134.874 3.67522C134.529 3.33652 134.214 3.03814 133.917 2.76091Z" fill="#6355FF"/>
<path d="M127.881 10.5067C130.61 8.87336 133.625 8.10966 136.437 8.44312C136.272 6.33117 135.805 4.622 134.874 3.67522C134.529 3.33652 134.214 3.03814 133.917 2.76091C132.498 1.96844 131.681 2.34244 130.512 2.87206C129.054 3.539 126.402 5.51778 125.678 12.2969C126.309 11.6248 127.033 11.0141 127.881 10.5067Z" fill="#6355FF"/>
<path d="M95.0245 25.4643C93.0851 24.6588 91.4675 23.1994 89.5373 28.0418C88.7448 30.0348 88.4428 31.8839 88.3578 33.3694C89.5726 38.0876 94.6439 44.1933 98.737 47.7241C102.824 51.2445 117.118 61.5348 119.927 61.7231C116.832 55.8372 104.038 36.8715 102.119 33.3629C100.181 29.8124 96.9573 26.2699 95.0245 25.4643Z" fill="#6355FF"/>
<path d="M92.0939 30.4033C94.1836 29.2839 96.4983 28.838 98.8901 28.7412C97.4935 27.138 96.0667 25.8959 95.0245 25.4643C93.0851 24.6588 91.4675 23.1994 89.5373 28.0418C88.8011 29.8922 88.4951 31.6038 88.3853 33.0358C89.4746 32.0001 90.7679 31.1187 92.0939 30.4033Z" fill="#6355FF"/>
<path d="M120.35 61.1175C120.35 61.1175 117.605 45.7912 114.059 34.1748C110.502 22.5585 107.445 17.8769 100.029 19.1676C92.6 20.4596 88.0792 26.5875 88.0792 31.4221C88.0792 32.0341 88.1747 32.6894 88.3578 33.3694C88.4428 31.8839 88.7448 30.0348 89.5373 28.0418C91.4675 23.1994 93.0851 24.6588 95.0245 25.4643C96.9573 26.2699 100.181 29.8124 102.119 33.3629C104.038 36.8715 116.832 55.8372 119.927 61.7231C120.33 61.7428 120.495 61.5635 120.35 61.1175Z" fill="#FFC100"/>
<path d="M101.118 23.4492C104.154 22.7613 107.67 22.3939 110.225 24.3515C107.767 19.989 104.792 18.3319 100.029 19.1676C92.6 20.4596 88.0792 26.5875 88.0792 31.4221C88.0792 32.0341 88.1747 32.6894 88.3578 33.3694C88.4428 31.8839 88.7448 30.0348 89.5373 28.0418C91.4675 23.1994 93.0851 24.6588 95.0245 25.4643C96.1295 25.922 97.6647 27.286 99.132 29.0344C98.3042 26.3405 98.4716 24.0468 101.118 23.4492Z" fill="#FFB500"/>
<path d="M87.7589 29.4933C83.4081 22.5599 73.565 22.3938 69.2077 25.4643C67.5482 26.6308 66.4184 28.132 65.6717 29.9027C67.4724 27.9921 69.7805 27.5122 71.9526 29.173C73.4316 30.3002 74.9342 31.6328 77.1442 33.6898C79.6654 36.0253 83.0969 39.2881 88.4271 44.209C89.1359 44.8681 89.8852 45.5559 90.662 46.2712C97.7419 52.7653 106.795 56.916 112.893 59.1927C116.953 60.7083 119.702 61.3962 119.702 61.3962C119.702 61.3962 92.1214 36.4255 87.7589 29.4933Z" fill="#FFB500"/>
<path d="M73.7376 28.3543C73.0445 26.7981 74.2659 25.4368 75.8208 25.2694C80.1715 24.8025 83.9024 26.2632 87.1311 28.625C82.5319 22.5598 73.3728 22.5324 69.2077 25.4643C67.5482 26.6308 66.4184 28.132 65.6717 29.9027C67.4724 27.9921 69.7805 27.5122 71.9526 29.173C73.2995 30.2034 74.683 31.4104 76.591 33.1758C75.4912 31.6039 74.4738 29.9798 73.7376 28.3543Z" fill="#FFB500"/>
<path d="M90.662 46.2712C89.8852 45.5559 89.1359 44.8681 88.4271 44.209C86.0379 43.5761 83.6958 42.9718 81.9513 42.5625C76.4707 41.2705 76.6315 40.1367 76.4707 37.0819C76.4092 35.969 76.7113 34.7739 77.1442 33.6898C74.9342 31.6328 73.4316 30.3002 71.9526 29.173C69.7805 27.5122 67.4724 27.9921 65.6717 29.9027C64.4699 32.7875 64.2763 36.377 64.5274 40.4636C64.8556 45.7912 64.3665 48.6957 70.8227 49.5025C76.8042 50.2453 96.7794 55.6985 112.893 59.1927C106.795 56.916 97.7419 52.7653 90.662 46.2712Z" fill="#6355FF"/>
<path d="M68.3041 32.0001C70.7377 31.7805 73.1962 31.8981 75.6272 32.2852C74.1979 30.988 73.0576 30.0217 71.9526 29.173C69.7805 27.5122 67.4724 27.9921 65.6717 29.9027C65.2349 30.9384 64.9432 32.0616 64.7471 33.2712C65.6965 32.5912 66.8904 32.1335 68.3041 32.0001Z" fill="#6355FF"/>
<path d="M90.662 46.2712C89.8852 45.5559 89.1359 44.8681 88.4271 44.209C86.0379 43.5761 83.6958 42.9718 81.9513 42.5625C79.5961 42.0067 78.2832 41.4771 77.5404 40.8181C75.4742 43.4583 72.5986 45.4173 69.2234 46.0293C67.2487 46.3967 65.9018 46.0293 64.9145 45.2237C65.3866 47.5697 66.655 48.9755 70.8227 49.5025C76.8042 50.2453 96.7794 55.6985 112.893 59.1927C106.795 56.916 97.7419 52.7653 90.662 46.2712Z" fill="#6355FF"/>
<path d="M116.534 60.1456C116.297 60.1456 116.153 60.1456 116.153 60.1456C116.153 60.1456 101.474 62.2419 88.5644 62.5623C83.0733 62.7009 79.6301 61.813 77.4763 60.7563C77.9327 61.1382 78.4558 61.4795 79.0442 61.7567C80.7691 62.5767 88.5356 63.5352 96.5662 64.0073C104.036 63.6817 112.159 62.9197 119.702 61.3962C119.702 61.3962 118.52 60.9093 116.534 60.1456Z" fill="#6355FF"/>
<path d="M79.0442 61.7567C78.4558 61.4795 77.9327 61.1382 77.4763 60.7563C74.2646 58.0337 74.3509 53.074 76.468 50.9463C77.1637 50.2532 78.7382 49.9315 80.6305 49.8295C79.5568 49.7249 78.5368 49.6543 77.5992 49.6543C74.6974 49.6543 68.2373 44.9792 64.2083 51.5936C60.1792 58.2145 65.0138 62.5627 70.501 63.3682C73.9049 63.8678 84.3679 64.5291 96.5662 64.0073C88.5356 63.5352 80.7691 62.5767 79.0442 61.7567Z" fill="#FFC100"/>
<path d="M79.0442 61.7567C78.4558 61.4795 77.9327 61.1382 77.4763 60.7563C76.7061 60.0972 76.1268 59.3114 75.7161 58.4653C72.4233 59.4081 68.1798 59.3101 65.346 57.3786C64.0462 56.4985 63.3164 55.4209 63.017 54.2662C61.5824 59.3663 65.7919 62.6817 70.501 63.3682C73.9049 63.8678 84.3679 64.5291 96.5662 64.0073C88.5382 63.5378 80.7704 62.5767 79.0442 61.7567Z" fill="#6355FF"/>
<path d="M119.468 61.8393L117.202 61.4378C117.202 61.4378 99.1385 63.6949 92.4391 61.2691C92.4391 61.2691 92.5241 67.0021 98.2467 67.4023C103.971 67.809 113.657 65.0628 119.468 61.8393Z" fill="#6355FF"/>
<path d="M119.468 61.8393L117.202 61.4378C117.202 61.4378 99.1385 63.6949 92.4391 61.2691C92.4391 61.2691 92.5241 67.0021 98.2467 67.4023C103.971 67.809 113.657 65.0628 119.468 61.8393Z" fill="#6355FF"/>
<path d="M119.468 61.8393L117.202 61.4378C117.202 61.4378 96.3937 52.0783 92.5241 52.557C92.5241 52.557 93.1623 45.222 98.8888 45.6235C104.619 46.0276 116.714 56.5954 119.468 61.8393Z" fill="#6355FF"/>
<path d="M103.319 47.9605C103.791 47.9305 104.265 47.9305 104.751 47.9527C102.525 46.6241 100.468 45.7346 98.8888 45.6235C93.1623 45.222 92.5241 52.557 92.5241 52.557C93.0655 52.4955 93.9704 52.6278 95.1003 52.905C96.7493 50.1 100.304 48.0992 103.319 47.9605Z" fill="#6355FF"/>
<path d="M102.117 45.4657C90.5011 39.3312 82.2795 39.9838 79.0456 49.9812C75.8221 59.9852 78.7278 67.7333 86.6329 68.8566C94.5406 69.9839 111.638 66.7591 120.191 62.0762C120.191 62.0762 113.736 51.5936 102.117 45.4657ZM96.7153 65.675C94.5393 64.5778 92.9687 61.4393 93.5677 54.5399C94.1784 47.6391 96.3531 43.1667 105.668 49.4594C114.987 55.7469 118.738 61.6734 118.738 61.6734C101.069 68.5794 98.89 66.7604 96.7153 65.675Z" fill="#FF9500"/>
<path d="M87.5509 51.6692C91.593 52.0236 92.1763 55.9297 93.5232 59.2552C93.4068 57.9213 93.4173 56.3667 93.5677 54.5399C94.1784 47.6391 96.3531 43.1667 105.668 49.4594C105.695 49.4725 105.724 49.4945 105.753 49.5154C102.612 46.6463 98.9214 44.4297 95.6103 46.2853C92.8877 47.8075 90.1049 48.9675 86.8957 48.4588C82.715 47.8075 81.9788 45.9009 82.8824 43.7759C81.2425 45.166 79.9505 47.201 79.0456 49.9812C78.4702 51.7793 78.0936 53.5026 77.9052 55.1281C80.144 52.565 83.3675 51.3069 87.5509 51.6692Z" fill="#FFB500"/>
<path d="M180.045 42.2355C178.437 40.4701 175.851 38.7687 172.661 38.4261C172.522 39.148 172.115 40.0255 171.334 41.1095C167.201 46.8059 146.104 43.8387 128.903 56.2672C132.417 55.0379 140.227 52.9038 151.159 53.3706C165.089 53.9604 170.585 56.7249 176.381 54.1749C177.023 53.7237 177.614 53.2385 178.11 52.7246C180.851 49.8202 181.66 44.0127 180.045 42.2355Z" fill="#6355FF"/>
<path d="M180.045 42.2355C178.437 40.4701 175.851 38.7687 172.661 38.4261C172.531 39.1074 172.147 39.9274 171.452 40.9278C175.642 42.4839 178.116 47.1891 177.519 52.5023C177.478 52.8083 177.421 53.113 177.367 53.4203C177.631 53.1993 177.881 52.96 178.11 52.7246C180.851 49.8202 181.66 44.0127 180.045 42.2355Z" fill="#6355FF"/>
<path d="M178.909 29.6513C174.558 24.3315 171.334 21.2663 155.356 30.2999C139.392 39.331 126.8 57.0792 126.8 57.0792C126.8 57.0792 127.087 56.9484 127.593 56.7405C131.562 54.0714 142.904 46.6384 151.158 43.3652C160.13 39.8096 166.98 38.494 171.167 38.3646C171.681 38.3502 172.182 38.3725 172.661 38.4261C175.851 38.7687 178.437 40.4701 180.045 42.2355C181.66 44.0127 180.851 49.8202 178.11 52.7246C177.614 53.2385 177.023 53.7237 176.381 54.1749C176.895 53.9473 177.418 53.6818 177.948 53.3705C184.396 49.5023 183.269 34.9802 178.909 29.6513Z" fill="#ACA5FF"/>
<path d="M179.479 41.6652C179.352 38.7059 178.518 35.655 177.095 32.6329C176.157 30.653 175.046 28.188 175.779 26.3663C173.527 24.5617 170.751 23.8647 165.819 25.4222C168.138 25.5189 170.248 26.4579 171.973 29.0759C173.698 31.6887 174.051 34.7867 171.793 37.2399C171.418 37.6505 171.013 38.0245 170.592 38.3933C170.793 38.3868 170.988 38.3724 171.167 38.3646C171.681 38.3502 172.182 38.3725 172.661 38.4261C175.503 38.7334 177.851 40.1077 179.479 41.6652Z" fill="#FF9000"/>
<path d="M167.142 44.8614C160.484 40.2609 152.132 43.4098 135.07 52.2395C118.009 61.077 119.468 61.8393 119.468 61.8393L126.719 65.0641C133.742 68.0928 162.178 76.1941 169.793 67.609C177.419 59.0186 173.793 49.4593 167.142 44.8614ZM167.618 68.3281C161.261 74.6914 131.91 66.9524 126.241 64.4586L120.19 61.9204C120.19 61.9204 124.546 58.8943 136.531 57.0792C151.85 54.7528 164.111 54.1421 169.43 57.8102C174.766 61.4653 170.891 65.0628 167.618 68.3281Z" fill="#FF9500"/>
<path d="M163.398 51.7374C163.631 52.2526 163.539 52.7809 163.04 53.0987C161.456 54.12 159.759 54.7804 157.996 55.225C163.024 55.344 166.972 56.1154 169.43 57.8102C170.184 58.3189 170.724 58.8252 171.138 59.3391C171.127 58.3374 170.943 57.2834 170.556 56.1928C169.279 52.6149 166.832 50.5147 164.915 47.439C163.886 45.7912 163.895 44.3881 164.575 43.5119C161.358 42.3049 157.643 42.5808 152.786 44.1815C157.33 44.5424 161.317 47.0911 163.398 51.7374Z" fill="#FF9000"/>
<path d="M131.512 40.6769C133.111 37.8522 134.89 35.2316 137.376 33.4662C137.779 32.4527 138.112 31.5569 138.333 30.8259C140.029 25.378 140.153 18.2392 133.985 19.4462C129.719 20.2805 124.712 24.6417 121.258 33.27C120.925 34.5633 120.648 35.9521 120.431 37.4808C118.782 48.9586 119.649 60.673 119.702 61.3962C120.508 60.5213 121.438 59.4778 122.543 58.2695C125.182 52.2318 128.276 46.4164 131.512 40.6769Z" fill="#6355FF"/>
<path d="M133.985 19.4462C132.833 19.6751 131.622 20.169 130.414 20.9183C132.268 20.8516 134.028 22.0037 135.416 25.2403C136.531 27.8269 136.946 30.7915 136.861 33.862C137.036 33.7312 137.203 33.5904 137.376 33.4662C137.779 32.4527 138.112 31.5569 138.333 30.8259C140.029 25.378 140.153 18.2392 133.985 19.4462Z" fill="#6355FF"/>
<path d="M152.62 33.2423C152.113 28.5489 146.082 24.172 146.082 24.172C143.176 20.9053 137.252 17.028 132.407 19.085C128.191 20.8766 123.509 24.5149 121.258 33.27C124.712 24.6417 129.719 20.2805 133.985 19.4462C140.153 18.2392 140.029 25.378 138.333 30.8259C136.646 36.2633 129.747 50.3066 122.85 57.9213C121.624 59.2957 120.577 60.4363 119.702 61.3962C119.586 61.6734 119.468 61.8393 119.468 61.8393C124.789 59.8241 136.891 53.6896 144.513 47.4008C152.133 41.1094 152.983 36.6358 152.62 33.2423Z" fill="#FFC100"/>
<path d="M152.62 33.2423C152.113 28.5489 146.082 24.172 146.082 24.172C143.353 21.1002 137.959 17.5014 133.297 18.7804C133.499 18.7738 133.695 18.7647 133.896 18.7738C134.954 18.8026 135.82 19.0576 136.531 19.4878C138.835 20.1692 139.502 22.8513 139.294 25.8943C139.307 26.7077 139.266 27.5342 139.178 28.3541C140.292 26.0604 141.699 24.4637 144.268 26.3873C149.198 30.0777 151.404 35.4275 150.633 40.8741C152.598 37.8088 152.844 35.315 152.62 33.2423Z" fill="#FF9000"/>
<path d="M161.163 72.8855C161.163 72.8855 169.068 70.954 172.779 69.662C176.488 68.37 179.712 66.7589 186.174 64.9791C192.628 63.2085 196.818 63.2085 204.238 60.9501L202.304 64.66C202.304 64.66 211.34 65.633 213.757 66.5994C213.757 66.5994 209.884 67.8835 206.822 69.1755C203.758 70.4676 199.234 71.2744 197.302 71.927C195.366 72.5677 192.787 72.246 187.785 73.6911C182.783 75.1518 170.681 78.3753 167.292 79.02L169.238 74.1775L161.163 72.8855Z" fill="#7B6FFF"/>
<path d="M186.123 74.1724C185.756 74.179 185.396 74.1934 185.034 74.2195C183.674 74.3189 182.213 74.6511 180.844 74.4562C179.101 74.2012 176.724 72.8176 176.947 70.6926C177.086 69.3156 177.753 68.2812 178.685 67.4181C176.503 68.2381 174.702 68.9938 172.779 69.662C169.068 70.954 161.163 72.8855 161.163 72.8855L169.238 74.1775L167.292 79.02C170.356 78.4367 180.504 75.7561 186.123 74.1724Z" fill="#B7B0FF"/>
<path d="M202.304 64.66L204.238 60.9501C198.638 62.6592 194.872 63.0777 190.594 63.9395C192.408 64.5057 194.082 65.718 195.694 66.9812C197.082 68.0588 198.883 69.6489 199.123 71.4143C201.361 70.8573 204.502 70.1563 206.822 69.1755C209.884 67.8835 213.757 66.5994 213.757 66.5994C211.34 65.633 202.304 64.66 202.304 64.66Z" fill="#B7B0FF"/>
<path d="M191.299 64.9738C187.51 64.9516 183.41 66.7301 180.01 68.2954C179.916 68.3438 179.963 68.4759 180.077 68.4536C182.271 67.9253 184.591 67.4951 186.85 66.9668C186.714 67.1891 186.696 67.5095 186.952 67.6703C188.369 68.5661 188.982 70.2047 190.377 71.1331C190.55 71.2535 190.859 71.1057 190.754 70.8703C190.118 69.4397 189.34 68.0653 188.091 67.1172C188.331 66.8674 188.592 66.6608 188.862 66.4515C189.737 66.2018 190.606 65.9376 191.447 65.6251C191.825 65.4865 191.677 64.9738 191.299 64.9738Z" fill="#6355FF"/>
<path d="M156.967 104.025C147.451 100.48 144.728 98.3009 144.545 93.0531C144.545 92.9158 144.117 94.0195 144.101 94.1581C143.627 99.8414 147.614 102.731 153.259 103.863C162.523 105.72 157.105 104.081 156.967 104.025Z" fill="#6355FF"/>
<path d="M154.009 134.947C148.145 132.029 141.961 130.973 136.947 126.45C136.764 126.282 136.475 126.547 136.628 126.733C140.822 131.959 147.52 134.099 153.86 135.399C154.134 135.454 154.244 135.064 154.009 134.947Z" fill="#6355FF"/>
<path d="M152.985 168.287C149.701 166.958 146.559 165.334 143.421 163.708C140.626 162.263 136.169 160.2 135.961 156.615C135.952 156.476 135.728 156.461 135.722 156.6C135.494 159.685 138.368 162.152 140.726 163.644C144.434 165.993 148.672 167.481 152.918 168.508C153.047 168.544 153.112 168.344 152.985 168.287Z" fill="#6355FF"/>
<path d="M148.423 189.983C145.427 187.879 140.67 187.476 139.449 183.487C139.364 183.237 138.961 183.321 139.003 183.584C139.556 187.51 144.672 189.988 148.213 190.421C148.45 190.447 148.638 190.136 148.423 189.983Z" fill="#6355FF"/>
<path d="M234.707 111.042C231.862 116.084 228.846 120.935 223.717 123.979C223.648 124.02 223.717 124.131 223.787 124.103C229.041 121.643 234.137 117.086 235.097 111.159C235.132 110.923 234.82 110.842 234.707 111.042Z" fill="#6355FF"/>
<path d="M238.821 140.01C236.466 141.75 233.265 141.873 230.652 143.117C228.093 144.332 225.838 146.348 223.836 148.32C223.746 148.403 223.89 148.571 223.988 148.488C226.692 146.195 229.422 144.749 232.812 143.728C235.168 143.014 237.591 142.415 239.071 140.282C239.184 140.123 239.001 139.886 238.821 140.01Z" fill="#6355FF"/>
<path d="M237.036 157.499C234.821 157.118 233.168 158.882 231.783 160.38C229.265 163.12 226.623 165.675 223.728 168.024C223.648 168.079 223.728 168.177 223.802 168.135C226.377 166.537 228.851 164.676 231.097 162.633C233.014 160.881 234.554 158.908 237.078 157.991C237.32 157.907 237.294 157.54 237.036 157.499Z" fill="#6355FF"/>
<path d="M235.542 179.306C233.312 180.98 231.292 182.863 228.978 184.432C226.484 186.129 223.898 187.697 221.438 189.448C221.356 189.519 221.431 189.678 221.536 189.629C226.607 187.114 232.931 184.759 235.954 179.647C236.099 179.402 235.752 179.145 235.542 179.306Z" fill="#6355FF"/>
</svg>
