<svg width="94" height="30" viewBox="0 0 94 30" fill="none" xmlns="http://www.w3.org/2000/svg">
<path d="M15.9855 18.3409C17.5368 18.6714 18.7828 19.4471 19.7238 20.6677C20.6647 21.863 21.1351 23.2362 21.1351 24.7874C21.1351 27.0253 20.3468 28.8054 18.7701 30.1278C17.2189 31.4248 15.0446 32.0732 12.2472 32.0732H-0.226347V5.29508H11.8276C14.5487 5.29508 16.6721 5.91813 18.1979 7.16421C19.7492 8.4103 20.5248 10.1014 20.5248 12.2376C20.5248 13.8143 20.1052 15.1239 19.266 16.1666C18.4522 17.2092 17.3587 17.934 15.9855 18.3409ZM6.29654 16.1284H10.5688C11.6369 16.1284 12.4507 15.8995 13.0101 15.4418C13.595 14.9586 13.8875 14.2593 13.8875 13.3438C13.8875 12.4283 13.595 11.729 13.0101 11.2458C12.4507 10.7626 11.6369 10.521 10.5688 10.521H6.29654V16.1284ZM11.1029 26.8092C12.1964 26.8092 13.0356 26.5676 13.6205 26.0844C14.2308 25.5758 14.536 24.851 14.536 23.9101C14.536 22.9692 14.2181 22.2317 13.5823 21.6977C12.972 21.1636 12.1201 20.8966 11.0266 20.8966H6.29654V26.8092H11.1029Z" fill="#FEFEFE"/>
<path d="M27.9873 3.84555V32.0732H21.4644V3.84555H27.9873Z" fill="#FEFEFE"/>
<path d="M35.8574 3.84555V32.0732H29.3345V3.84555H35.8574Z" fill="#FEFEFE"/>
<path d="M94.9206 10.788L89.1607 32.0732H81.9511L78.5943 18.2646L75.1231 32.0732H67.9517L62.1536 10.788H68.6765L71.69 26.0081L75.2757 10.788H82.18L85.8038 25.9318L88.7792 10.788H94.9206Z" fill="#FEFEFE"/>
<path fill-rule="evenodd" clip-rule="evenodd" d="M50.3879 5.08838C57.2982 5.08838 62.7689 10.5591 62.7689 17.3734C62.7689 24.1878 57.2982 29.6585 50.3879 29.6585C43.5735 29.6585 38.0068 24.1878 38.0068 17.3734C38.0068 10.5591 43.5735 5.08838 50.3879 5.08838ZM50.3879 7.10389C52.4034 13.8223 54.2269 15.6458 60.7534 17.3734C53.939 19.3889 52.1154 21.2125 50.3879 27.7389C48.4683 20.9246 46.5488 19.101 40.1183 17.3734C46.8367 15.4539 48.6603 13.5343 50.3879 7.10389Z" fill="white"/>
</svg>
